<svg width="300" height="200" viewBox="0 0 300 200" xmlns="http://www.w3.org/2000/svg">
  <defs>
    <radialGradient id="gradient-1" cx="30%" cy="20%" r="50%">
      <stop offset="0%" stop-color="rgba(69, 183, 209, 0.4)" />
      <stop offset="100%" stop-color="transparent" />
    </radialGradient>
    <radialGradient id="gradient-2" cx="70%" cy="80%" r="50%">
      <stop offset="0%" stop-color="rgba(150, 206, 180, 0.4)" />
      <stop offset="100%" stop-color="transparent" />
    </radialGradient>
    <radialGradient id="gradient-3" cx="20%" cy="80%" r="50%">
      <stop offset="0%" stop-color="rgba(255, 107, 107, 0.4)" />
      <stop offset="100%" stop-color="transparent" />
    </radialGradient>
    <radialGradient id="gradient-4" cx="80%" cy="20%" r="50%">
      <stop offset="0%" stop-color="rgba(78, 205, 196, 0.4)" />
      <stop offset="100%" stop-color="transparent" />
    </radialGradient>
  </defs>
  
  <!-- 배경 그라데이션 -->
  <rect width="100%" height="100%" fill="url(#gradient-1)" />
  <rect width="100%" height="100%" fill="url(#gradient-2)" />
  <rect width="100%" height="100%" fill="url(#gradient-3)" />
  <rect width="100%" height="100%" fill="url(#gradient-4)" />
  
  <!-- 삼각형 -->
  <g transform="translate(45, 20) rotate(60)">
    <polygon points="0,35 20,0 40,35" fill="#45b7d1" opacity="0.8" />
  </g>
  
  <!-- 사각형 -->
  <g transform="translate(225, 40) rotate(90)">
    <rect x="0" y="0" width="25" height="25" fill="#96ceb4" opacity="0.8" />
  </g>
  
  <!-- 원 -->
  <circle cx="75" cy="150" r="15" fill="#feca57" opacity="0.8" />
  
  <!-- 육각형 -->
  <g transform="translate(270, 100) rotate(120)">
    <polygon points="0,11 19,22 19,44 0,55 -19,44 -19,22" fill="#ff9ff3" opacity="0.8" />
  </g>
  
  <!-- 다이아몬드 -->
  <g transform="translate(210, 170) rotate(180)">
    <polygon points="10,0 20,10 10,20 0,10" fill="#ff69b4" opacity="0.8" />
  </g>
  
  <!-- 별 모양 -->
  <g transform="translate(150, 70) rotate(144)">
    <polygon points="0,-9 2.8,-2.8 9,0 2.8,2.8 0,9 -2.8,2.8 -9,0 -2.8,-2.8" fill="#9370db" opacity="0.8" />
  </g>
  
  <!-- 하트 모양 -->
  <g transform="translate(30, 100) rotate(40)">
    <path d="M9,15.5 C9,12.5 6.5,10 3.5,10 C0.5,10 -2,12.5 -2,15.5 C-2,18.5 0.5,21 3.5,21 C6.5,21 9,18.5 9,15.5 Z" fill="#ffa500" opacity="0.6" />
  </g>
  
  <!-- 팔각형 -->
  <g transform="translate(180, 30) rotate(80)">
    <polygon points="0,-8 6,-6 8,0 6,6 0,8 -6,6 -8,0 -6,-6" fill="#ff6b6b" opacity="0.7" />
  </g>
  
  <!-- 화살표 -->
  <g transform="translate(120, 160) rotate(100)">
    <polygon points="0,0 0,20 15,10" fill="#4ecdc4" opacity="0.6" />
  </g>

  <!-- 추가된 도형들 (밀도 향상) -->
  <g transform="translate(250, 30) rotate(30)">
    <path d="M0,0 A10,10 0 1,1 0,20" fill="none" stroke="#5f27cd" stroke-width="2" opacity="0.5" />
  </g>

  <g transform="translate(100, 120) rotate(-45)">
    <rect x="-10" y="-10" width="20" height="20" fill="none" stroke="#1dd1a1" stroke-width="1.5" opacity="0.6" />
  </g>

  <circle cx="20" cy="50" r="5" fill="#ff6b6b" opacity="0.4" />
  <circle cx="280" cy="180" r="3" fill="#54a0ff" opacity="0.6" />
  <circle cx="150" cy="10" r="2" fill="#feca57" opacity="0.6" />
  <circle cx="50" cy="180" r="1.5" fill="#ff9ff3" opacity="0.7" />

  <g transform="translate(210, 80) rotate(15)">
    <polygon points="0,0 12,0 6,10" fill="#ee5253" opacity="0.5" />
  </g>

  <line x1="180" y1="130" x2="200" y2="150" stroke="#4ecdc4" stroke-width="1" opacity="0.5" />
  <line x1="200" y1="130" x2="180" y2="150" stroke="#4ecdc4" stroke-width="1" opacity="0.5" />
</svg>
