<svg width="300" height="200" viewBox="0 0 300 200" xmlns="http://www.w3.org/2000/svg">
  <defs>
    <radialGradient id="gradient-1" cx="30%" cy="20%" r="50%">
      <stop offset="0%" stop-color="rgba(78, 205, 196, 0.4)" />
      <stop offset="100%" stop-color="transparent" />
    </radialGradient>
    <radialGradient id="gradient-2" cx="70%" cy="80%" r="50%">
      <stop offset="0%" stop-color="rgba(69, 183, 209, 0.4)" />
      <stop offset="100%" stop-color="transparent" />
    </radialGradient>
    <radialGradient id="gradient-3" cx="20%" cy="80%" r="50%">
      <stop offset="0%" stop-color="rgba(150, 206, 180, 0.4)" />
      <stop offset="100%" stop-color="transparent" />
    </radialGradient>
    <radialGradient id="gradient-4" cx="80%" cy="20%" r="50%">
      <stop offset="0%" stop-color="rgba(255, 107, 107, 0.4)" />
      <stop offset="100%" stop-color="transparent" />
    </radialGradient>
  </defs>
  
  <!-- 배경 그라데이션 -->
  <rect width="100%" height="100%" fill="url(#gradient-1)" />
  <rect width="100%" height="100%" fill="url(#gradient-2)" />
  <rect width="100%" height="100%" fill="url(#gradient-3)" />
  <rect width="100%" height="100%" fill="url(#gradient-4)" />
  
  <!-- 삼각형 -->
  <g transform="translate(45, 20) rotate(30)">
    <polygon points="0,35 20,0 40,35" fill="#4ecdc4" opacity="0.8" />
  </g>
  
  <!-- 사각형 -->
  <g transform="translate(225, 40) rotate(45)">
    <rect x="0" y="0" width="25" height="25" fill="#45b7d1" opacity="0.8" />
  </g>
  
  <!-- 원 -->
  <circle cx="75" cy="150" r="15" fill="#96ceb4" opacity="0.8" />
  
  <!-- 육각형 -->
  <g transform="translate(270, 100) rotate(60)">
    <polygon points="0,11 19,22 19,44 0,55 -19,44 -19,22" fill="#feca57" opacity="0.8" />
  </g>
  
  <!-- 다이아몬드 -->
  <g transform="translate(210, 170) rotate(90)">
    <polygon points="10,0 20,10 10,20 0,10" fill="#ff9ff3" opacity="0.8" />
  </g>
  
  <!-- 별 모양 -->
  <g transform="translate(150, 70) rotate(72)">
    <polygon points="0,-9 2.8,-2.8 9,0 2.8,2.8 0,9 -2.8,2.8 -9,0 -2.8,-2.8" fill="#ff69b4" opacity="0.8" />
  </g>
  
  <!-- 하트 모양 -->
  <g transform="translate(30, 100) rotate(20)">
    <path d="M9,15.5 C9,12.5 6.5,10 3.5,10 C0.5,10 -2,12.5 -2,15.5 C-2,18.5 0.5,21 3.5,21 C6.5,21 9,18.5 9,15.5 Z" fill="#9370db" opacity="0.6" />
  </g>
  
  <!-- 팔각형 -->
  <g transform="translate(180, 30) rotate(40)">
    <polygon points="0,-8 6,-6 8,0 6,6 0,8 -6,6 -8,0 -6,-6" fill="#ffa500" opacity="0.7" />
  </g>
  
  <!-- 화살표 -->
  <g transform="translate(120, 160) rotate(50)">
    <polygon points="0,0 0,20 15,10" fill="#ff6b6b" opacity="0.6" />
  </g>
</svg>
